<?xml version="1.0" encoding="utf-8"?><svg viewBox="0 0 70 70" xmlns="http://www.w3.org/2000/svg" xmlns:xlink="http://www.w3.org/1999/xlink"><style>:root>svg{display:none}:root>svg:target{display:block}</style><svg fill="none" viewBox="0 0 70 70" id="sprites" xmlns="http://www.w3.org/2000/svg"><path fill-rule="evenodd" clip-rule="evenodd" d="M0 34.895C0 15.623 15.653 0 34.961 0 54.27 0 69.923 15.623 69.923 34.895c0 19.272-15.653 34.895-34.962 34.895C15.653 69.79 0 54.167 0 34.895z" fill="#D34836"/><path fill-rule="evenodd" clip-rule="evenodd" d="M68.836 26.863H60.57v9.168h-3.897v-9.168h-9.093v-3.817h9.093v-9.088h3.897v9.088h6.942a34.597 34.597 0 011.325 3.817z" fill="#fff"/><path fill-rule="evenodd" clip-rule="evenodd" d="M9.604 57.478c.978-1.64 2.494-3.254 4.74-4.58 5.066-3.098 11.89-3.508 15.58-3.741-1.142-1.462-2.46-3.011-2.46-5.555 0-1.373.41-2.192.82-3.157-.907.088-1.786.176-2.606.176-8.64 0-13.531-6.431-13.531-12.775 0-3.741 1.728-7.898 5.213-10.906 4.657-3.821 10.192-4.473 14.585-4.473h16.782l-5.213 2.926h-5.037c1.874 1.547 5.77 4.8 5.77 10.992 0 6.021-3.427 8.857-6.825 11.546-1.083 1.053-2.284 2.193-2.284 3.976s1.2 2.777 2.108 3.508l2.93 2.28c3.602 2.982 6.853 5.759 6.853 11.371 0 3.702-1.73 7.417-5.103 10.268a35.268 35.268 0 01-5.572.456c3.424-1.5 5.198-4.242 5.198-7.537 0-4.151-2.665-6.344-8.874-10.758-.645-.058-1.055-.058-1.875-.058-.732 0-5.125.146-8.552 1.286-1.787.643-7 2.602-7 8.39 0 .629.067 1.239.198 1.826-8.587-6.358-4.867-5.461-5.845-5.461zm27.467-27.352c0-5.875-3.485-14.975-10.251-14.975-2.109 0-4.393 1.058-5.711 2.686-1.377 1.707-1.787 3.9-1.787 6.004 0 5.467 3.163 14.5 10.193 14.5 2.02 0 4.217-.994 5.535-2.28 1.874-1.871 2.02-4.473 2.02-5.935z" fill="#fff"/><path fill-rule="evenodd" clip-rule="evenodd" d="M70 35.105C70 54.377 54.347 70 35.039 70a34.845 34.845 0 01-19.363-5.836L55.736 6.98C64.386 13.331 70 23.564 70 35.105z" fill="#000" fill-opacity=".08"/></svg></svg>